<svg id="Layer_1" data-name="Layer 1" xmlns="http://www.w3.org/2000/svg" fill="#ff1a44" width="45px" height="45px" viewBox="0 0 44 45"><defs><style>.cls-1{fill:#ff1a44;}</style></defs><title>gifts</title><path class="cls-1" d="M16,0a7,7,0,0,0-4.9,12H1a1.08,1.08,0,0,0-1,1v9a1.08,1.08,0,0,0,1,1H3V44a1.08,1.08,0,0,0,1,1H40a1.08,1.08,0,0,0,1-1V23h2a1.08,1.08,0,0,0,1-1V13a1.08,1.08,0,0,0-1-1H32.8A7,7,0,0,0,27.9,0a7.1,7.1,0,0,0-6,3.4A6.93,6.93,0,0,0,16,0Zm0,2a5,5,0,0,1,5,5v5H16a5,5,0,0,1-5-5A5,5,0,0,1,16,2ZM28,2a5,5,0,0,1,5,5,5,5,0,0,1-5,5H23V7A5,5,0,0,1,28,2ZM2,14H21v7H2Zm21,0H42v7H23ZM5,23H21V43H5Zm18,0H39V43H23Z"/></svg>