<?xml version="1.0" encoding="utf-8"?>
<!-- Generator: Adobe Illustrator 21.0.2, SVG Export Plug-In . SVG Version: 6.00 Build 0)  -->
<svg version="1.1" id="Layer_1" xmlns="http://www.w3.org/2000/svg" xmlns:xlink="http://www.w3.org/1999/xlink" x="0px" y="0px"
	 viewBox="0 0 120 120" style="enable-background:new 0 0 120 120;" xml:space="preserve">
<style type="text/css">
	.st0{fill:#FFFFFF;}
</style>
<path class="st0" d="M69,50.3l0.1-3.3L60.1,47H60l-9.1,0.1l0.1,3.3h-4.2v0.5c0,4.9,2.8,9.2,6.9,11.3c1.7,2,3.9,2.8,5.6,3
	c-0.7,1.8-2.8,6.7-7,6.7V73h15.5v-1.1c-4.2,0-6.3-4.9-7-6.7c1.9-0.2,3.6-1.2,5-2.7c4.5-2,7.5-6.4,7.5-11.6v-0.5H69z M47.9,51.4h3.2
	l0.1,3.1c0,2.2,0.4,3.9,1.1,5.4C49.7,57.9,48,54.9,47.9,51.4z M64.2,71.9h-8.3c2.2-1.4,3.5-4,4.2-5.6C60.7,67.9,62,70.4,64.2,71.9z
	 M60,64.2c-4.2,0-7.7-4.9-7.7-9.7l-0.1-6.4l7.8,0.1h7.8l-0.1,6.3C67.8,59.1,64.3,64.2,60,64.2z M67.3,60.3c1-1.8,1.6-3.8,1.6-5.7
	l0.1-3.1h3.2C72,55.1,70.1,58.3,67.3,60.3z M61.8,52.8l-0.7-1.4l-1-2.1l-1,2.1l-0.7,1.4L56.8,53l-2.3,0.3l1.7,1.6l1.1,1.1l-0.3,1.5
	l-0.4,2.3l2-1.1l1.4-0.7l1.4,0.7l2.1,1.1l-0.4-2.3l-0.3-1.5l1.1-1.1l1.7-1.6L63.3,53L61.8,52.8z M61.6,55.7l0.4,2.1l-1.9-1l-1.9,1
	l0.4-2.1L57,54.2l2.1-0.3l0.9-1.9l0.9,1.9l2.1,0.3L61.6,55.7z"/>
</svg>
