<svg xmlns="http://www.w3.org/2000/svg" width="90" height="100" viewBox="0 0 100 100">
  <style type="text/css">
  .st0 {
    fill: #A2A2A2;
  }
  
  .st1 {
    fill: #ADADAD;
  }
  
  .st2 {
    fill: #FF1A44;
  }
  </style>
  <path class="st0" d="M109.5 109.5h-99v-99h99V109.5zM11.5 108.5h97v-97h-97V108.5z" />
  <polyline class="st1" points="63.4 41.9 64.5 43.8 63.4 45.6 " />
  <path class="st1" d="M63.4 37.1l-1.2-2.2c-0.3-0.6-1-0.8-1.6-0.4 -0.6 0.3-0.8 1-0.4 1.6l3.3 5.8" />
  <path class="st1" d="M60.9 66l-2.6-4.6 5.2 0 0-2.4 -5.2 0 5.2-8.8 0-4.6 -7.2 12.2 -8-14.2 4.5-7.6c0.2-0.3 0.2-0.6 0.1-0.9 -0.1-0.3-0.3-0.6-0.5-0.7 -0.3-0.2-0.6-0.2-0.9-0.1 -0.3 0.1-0.6 0.3-0.7 0.5l-3.8 6.4 -3.7-6.5c-0.2-0.3-0.4-0.5-0.7-0.6 -0.3-0.1-0.6 0-0.9 0.1 -0.6 0.3-0.8 1-0.4 1.6l3.7 6.5 -7.5-0.1c0 0 0 0 0 0 -0.6 0-1.2 0.5-1.2 1.2 0 0.4 0.2 0.8 0.6 1 0.2 0.1 0.4 0.2 0.6 0.2l8.8 0.1 8 14.2 -16.3-0.1 -4.3-7.7c-0.3-0.6-1-0.8-1.6-0.4 -0.6 0.3-0.8 1-0.4 1.6l3.7 6.5 -7.5-0.1c0 0 0 0 0 0 -0.6 0-1.2 0.5-1.2 1.2 0 0.4 0.2 0.8 0.6 1 0.2 0.1 0.4 0.2 0.6 0.2l7.5 0.1 -3.8 6.4c-0.3 0.6-0.1 1.3 0.4 1.6 0.6 0.3 1.3 0.1 1.6-0.4l4.5-7.6 16.3 0.1 -8.3 14 -8.8-0.1c-0.3 0-0.6 0.1-0.8 0.3 -0.2 0.2-0.3 0.5-0.4 0.8 0 0.4 0.2 0.8 0.6 1 0.2 0.1 0.4 0.2 0.6 0.2l7.5 0.1 -3.8 6.4c-0.2 0.3-0.2 0.6-0.1 0.9 0.1 0.3 0.3 0.6 0.5 0.7s0.6 0.2 0.9 0.1c0.3-0.1 0.6-0.3 0.7-0.5l3.8-6.4 3.7 6.5c0.1 0.2 0.2 0.3 0.4 0.4 0.4 0.2 0.8 0.2 1.2 0 0.6-0.3 0.8-1 0.4-1.6l-4.3-7.7 8.3-14 2.8 4.9" />
  <rect x="80.2" y="38.4" class="st1" width="9.6" height="1.6" />
  <rect x="80.2" y="43.7" class="st1" width="4.8" height="1.6" />
  <rect x="80.2" y="48.9" class="st1" width="9.6" height="1.6" />
  <rect x="80.2" y="54.2" class="st1" width="4.8" height="1.6" />
  <rect x="80.2" y="59.5" class="st1" width="9.6" height="1.6" />
  <path class="st2" d="M63.4 61.4v1.4c-4.7 2.2-7.7 6.9-7.7 12.1 0 7.4 6 13.4 13.4 13.4s13.4-6 13.4-13.4c0-5.2-3-9.9-7.7-12.1V35.1c0-3.1-2.5-5.7-5.7-5.7s-5.7 2.5-5.7 5.7V59M63.4 59v2.3V59zM72.4 64.7c0.1 0 7.4 2.4 7.4 10.2 0 5.9-4.8 10.7-10.7 10.7s-10.7-4.8-10.7-10.7c0-7.9 7.1-10.1 7.4-10.2l0.4-0.1V35.1c0-1.6 1.3-2.9 2.9-2.9s2.9 1.3 2.9 2.9v29.5L72.4 64.7z" />
  <path class="st2" d="M70.4 42.6c0-0.8-0.6-1.5-1.3-1.5 -0.7 0-1.3 0.7-1.3 1.5v24.2c-3.9 0.6-7 4-7 8.1 0 4.5 3.7 8.2 8.2 8.2s8.2-3.7 8.2-8.2c0-4.1-3-7.5-7-8.1V42.6zM74.6 74.9c0 3-2.5 5.5-5.5 5.5s-5.5-2.5-5.5-5.5c0-2.9 2.3-5.3 5.1-5.5 0.1 0 0.6 0 0.8 0C72.3 69.6 74.6 72 74.6 74.9z" />
</svg>
